<svg width="58" height="58" viewBox="0 0 58 58" fill="none" xmlns="http://www.w3.org/2000/svg">
<g clip-path="url(#clip0_39_142)">
<path d="M21.6835 19.2732C21.8271 19.3711 21.9955 19.4228 22.1709 19.4228H22.1729C22.6517 19.4228 23.041 19.0335 23.041 18.5551C23.041 18.4721 23.0294 18.3903 23.0065 18.311C22.5067 16.1221 22.7435 14.3592 23.7103 13.0711C24.8497 11.5532 25.3542 9.60546 25.0602 7.86116C24.8006 6.3154 23.9695 5.03053 22.6577 4.14622C22.3673 3.94978 21.9681 3.95132 21.6786 4.15055C21.3833 4.35412 21.2447 4.71176 21.3261 5.06366C21.8658 7.36665 21.375 8.82559 20.1443 11.0397C19.3778 12.4182 19.0648 13.9669 19.2628 15.4003C19.487 17.0212 20.3253 18.3613 21.6835 19.2732Z" fill="#DFA26C" fill-opacity="0.7"/>
<path d="M28.8041 18.9016C28.94 18.9947 29.0988 19.0439 29.2634 19.0439H29.2645C29.7148 19.0439 30.0813 18.6773 30.0813 18.2268C30.0813 18.1503 30.0707 18.0747 30.0494 18.0012C29.6704 16.3353 29.8477 14.9983 30.5762 14.0273C31.4885 12.8125 31.8924 11.2516 31.6567 9.85236C31.4474 8.60719 30.7778 7.57188 29.7207 6.85884C29.4486 6.67513 29.0802 6.67233 28.7981 6.86443C28.5234 7.055 28.3915 7.40131 28.469 7.72204C28.8803 9.4764 28.5035 10.5929 27.5595 12.2905C26.9461 13.3938 26.696 14.6339 26.855 15.7822C27.0353 17.0883 27.711 18.1682 28.8041 18.9016Z" fill="#DFA26C" fill-opacity="0.7"/>
<path d="M51.2522 24.3119C50.7154 23.6714 49.9442 23.3154 49.0805 23.3096L45.0747 23.2829C45.1209 22.5964 45.0003 21.739 44.5145 21.1593C44.1554 20.7307 43.6411 20.502 43.0272 20.4979L8.30831 20.266C7.39955 20.26 6.87335 20.6478 6.5921 20.9742C6.01593 21.6426 5.9305 22.6487 6.04244 23.3674C6.95949 29.249 8.9898 34.5998 11.7597 38.4342C13.8096 41.272 16.2198 43.3006 18.9639 44.5097L9.29316 44.4451C8.09178 44.4371 7.10798 45.408 7.09996 46.6092C7.09194 47.8105 8.06281 48.7944 9.26405 48.8024L41.4734 49.0176C42.6748 49.0256 43.6587 48.0547 43.6667 46.8535C43.6747 45.6522 42.7039 44.6683 41.5025 44.6603L31.8828 44.596C34.1556 43.6354 36.2026 42.1204 38.0096 40.0581C41.0869 39.8153 44.1855 38.3672 46.8333 35.9138C49.5408 33.4053 51.3964 30.1924 51.9246 27.0995C51.9908 26.7125 52.1375 25.3682 51.2522 24.3119ZM41.6062 34.5913C42.7915 32.2014 43.6269 29.7335 44.2142 27.4716L47.519 27.4937C46.6622 30.1784 44.3859 32.9953 41.6062 34.5913Z" fill="#EBD5B9"/>
</g>
<defs>
<clipPath id="clip0_39_142">
<rect width="46" height="46" fill="white" transform="translate(5.92119 3.4668)"/>
</clipPath>
</defs>
</svg>
