<svg width="251" height="66" viewBox="0 0 251 66" fill="none" xmlns="http://www.w3.org/2000/svg">
<path d="M67.9212 48.6428C65.4892 48.6428 63.4892 48.0668 61.9212 46.9148C60.3852 45.7628 59.2492 44.2748 58.5132 42.4508C57.8092 40.6268 57.4572 38.7388 57.4572 36.7868C57.4572 34.2588 57.8412 31.7308 58.6092 29.2028C59.3772 26.6428 60.4332 24.2108 61.7772 21.9068C63.1532 19.6028 64.7052 17.5548 66.4332 15.7628C68.1612 13.9708 70.0012 12.5628 71.9532 11.5388C73.9372 10.4828 75.9052 9.95479 77.8572 9.95479C79.2652 9.95479 80.4492 10.2908 81.4092 10.9628C82.3692 11.6028 82.8492 12.7228 82.8492 14.3228C82.8492 15.2828 82.6732 16.3548 82.3212 17.5388C82.0012 18.7228 81.5532 19.8748 80.9772 20.9948C80.4332 22.0828 79.8092 22.9788 79.1052 23.6828C78.4012 24.3868 77.6812 24.7388 76.9452 24.7388C76.6252 24.7388 76.2892 24.6268 75.9372 24.4028C75.5852 24.1788 75.2652 23.7948 74.9772 23.2508C75.4572 22.7068 76.0012 22.0508 76.6092 21.2828C77.2172 20.4828 77.7932 19.6508 78.3372 18.7868C78.8812 17.8908 79.3292 17.0268 79.6812 16.1948C80.0332 15.3308 80.2092 14.5788 80.2092 13.9388C80.2092 13.3628 80.0492 12.9148 79.7292 12.5948C79.4092 12.2428 78.8492 12.0668 78.0492 12.0668C76.6412 12.0668 75.1852 12.5948 73.6812 13.6508C72.2092 14.7068 70.7852 16.1308 69.4092 17.9228C68.0332 19.6828 66.7852 21.6668 65.6652 23.8748C64.5772 26.0508 63.7132 28.3068 63.0732 30.6428C62.4332 32.9468 62.1132 35.1388 62.1132 37.2188C62.1132 38.7548 62.3372 40.2268 62.7852 41.6348C63.2652 43.0108 64.0172 44.1308 65.0412 44.9948C66.0652 45.8908 67.4092 46.3388 69.0732 46.3388C70.8012 46.3388 72.5132 45.8588 74.2092 44.8988C75.9372 43.9388 77.5052 42.6748 78.9132 41.1068C80.3532 39.5388 81.5052 37.8588 82.3692 36.0668L83.6172 36.8828C82.4972 39.0268 81.1532 40.9948 79.5852 42.7868C78.0172 44.5468 76.2412 45.9548 74.2572 47.0108C72.3052 48.0988 70.1932 48.6428 67.9212 48.6428ZM84.4017 46.0028C82.9617 46.0028 81.9697 45.5228 81.4257 44.5628C80.9137 43.6348 80.6577 42.6108 80.6577 41.4908C80.6577 40.4668 80.8177 39.4268 81.1377 38.3708C81.4577 37.2828 81.8897 36.2748 82.4337 35.3468C83.0097 34.4188 83.6337 33.6828 84.3057 33.1388C85.0097 32.5628 85.7137 32.2748 86.4177 32.2748C86.6417 32.2748 86.8977 32.3228 87.1857 32.4188C87.5057 32.4828 87.7297 32.5948 87.8577 32.7548C87.4737 33.2348 87.0737 33.8268 86.6577 34.5308C86.2737 35.2348 85.9057 35.9868 85.5537 36.7868C85.2337 37.5548 84.9777 38.3388 84.7857 39.1388C84.5937 39.9388 84.4977 40.6748 84.4977 41.3468C84.4977 41.9868 84.6097 42.5148 84.8337 42.9308C85.0897 43.3468 85.5217 43.5548 86.1297 43.5548C86.7377 43.5548 87.4577 43.2188 88.2897 42.5468C89.1537 41.8428 89.9697 41.0428 90.7377 40.1468C89.7137 39.2188 88.9777 38.2108 88.5297 37.1228C88.0817 36.0028 87.8577 34.6588 87.8577 33.0908C87.8577 32.4188 88.0177 31.6508 88.3377 30.7868C88.6897 29.9228 89.2337 29.1708 89.9697 28.5308C90.7377 27.8908 91.7617 27.5708 93.0417 27.5708C94.4177 27.5708 95.3777 27.9548 95.9217 28.7228C96.4977 29.4908 96.7857 30.4028 96.7857 31.4588C96.7857 32.6428 96.4657 33.9708 95.8257 35.4428C95.2177 36.9148 94.4817 38.3068 93.6177 39.6188C94.0017 39.8108 94.4497 39.9068 94.9617 39.9068C95.4417 39.9068 96.0177 39.7948 96.6897 39.5708C97.3617 39.3468 98.0177 38.9788 98.6577 38.4668C99.2977 37.9228 99.8097 37.2028 100.194 36.3068L101.058 36.9308C100.354 38.5628 99.4097 39.7628 98.2257 40.5308C97.0737 41.2668 95.9377 41.6348 94.8177 41.6348C94.4017 41.6348 93.9857 41.6028 93.5697 41.5388C93.1537 41.4428 92.7697 41.3308 92.4177 41.2028C91.3297 42.4828 90.0817 43.6028 88.6737 44.5628C87.2657 45.5228 85.8417 46.0028 84.4017 46.0028ZM91.9857 38.6108C92.7537 37.4908 93.4097 36.2908 93.9537 35.0108C94.4977 33.7308 94.7697 32.5468 94.7697 31.4588C94.7697 30.7228 94.6577 30.1948 94.4337 29.8748C94.2097 29.5228 93.8737 29.3468 93.4257 29.3468C92.8177 29.3468 92.1937 29.7788 91.5537 30.6428C90.9137 31.5068 90.5937 32.5948 90.5937 33.9068C90.5937 34.5788 90.7057 35.3948 90.9297 36.3548C91.1857 37.3148 91.5377 38.0668 91.9857 38.6108ZM99.0451 57.9068C98.6931 57.9068 98.2771 57.7948 97.7971 57.5708C97.2851 57.3468 96.8531 56.8988 96.5011 56.2268C96.1171 55.5868 95.9251 54.6108 95.9251 53.2988C95.9251 51.9228 96.1651 50.1148 96.6451 47.8748C97.0931 45.6668 97.7331 43.2188 98.5651 40.5308C99.3651 37.8108 100.309 35.0268 101.397 32.1788C102.517 29.3308 103.701 26.5948 104.949 23.9708C106.229 21.3148 107.541 18.9308 108.885 16.8188C110.261 14.7068 111.621 13.0268 112.965 11.7788C114.309 10.5308 115.605 9.9068 116.853 9.9068C117.685 9.9068 118.229 10.1628 118.485 10.6748C118.741 11.1548 118.869 11.7148 118.869 12.3548C118.869 13.7308 118.485 15.2348 117.717 16.8668C116.981 18.4988 115.989 20.1468 114.741 21.8108C113.493 23.4428 112.085 24.9948 110.517 26.4668C108.981 27.9388 107.397 29.2028 105.765 30.2588C105.637 30.5788 105.509 30.8988 105.381 31.2188C105.253 31.5388 105.125 31.8588 104.997 32.1788C105.349 32.3068 105.621 32.5308 105.813 32.8508C106.037 33.1708 106.165 33.5068 106.197 33.8588C106.453 35.2348 106.709 36.4668 106.965 37.5548C107.221 38.6108 107.605 39.4428 108.117 40.0508C108.661 40.6588 109.429 40.9628 110.421 40.9628C111.541 40.9628 112.533 40.5468 113.397 39.7148C114.261 38.8828 115.141 37.7148 116.037 36.2108L117.093 36.9788C116.069 39.0268 114.917 40.5308 113.637 41.4908C112.357 42.4188 111.205 42.8828 110.181 42.8828C109.637 42.8828 109.061 42.7708 108.453 42.5468C107.877 42.3228 107.317 42.0028 106.773 41.5868C106.741 43.5708 106.501 45.5228 106.053 47.4428C105.637 49.3948 105.061 51.1548 104.325 52.7228C103.589 54.2908 102.757 55.5388 101.829 56.4668C100.933 57.4268 100.005 57.9068 99.0451 57.9068ZM100.389 54.9308C100.741 54.9308 101.109 54.6268 101.493 54.0188C101.909 53.4108 102.309 52.6108 102.693 51.6188C103.077 50.6268 103.429 49.5228 103.749 48.3068C104.069 47.1228 104.325 45.9388 104.517 44.7548C104.709 43.6028 104.805 42.5468 104.805 41.5868C104.805 40.6588 104.693 39.8428 104.469 39.1388C104.277 38.4028 103.925 37.5868 103.413 36.6908C102.677 38.8988 102.021 41.0268 101.445 43.0748C100.869 45.1228 100.421 46.9788 100.101 48.6428C99.7811 50.3388 99.6211 51.7468 99.6211 52.8668C99.6211 54.2428 99.8771 54.9308 100.389 54.9308ZM107.157 26.8988C109.109 25.0748 110.773 23.2988 112.149 21.5708C113.525 19.8428 114.565 18.3228 115.269 17.0108C116.005 15.6668 116.373 14.7228 116.373 14.1788C116.373 13.9228 116.245 13.7948 115.989 13.7948C115.221 13.7948 114.341 14.3868 113.349 15.5708C112.357 16.7228 111.333 18.2908 110.277 20.2748C109.221 22.2588 108.181 24.4668 107.157 26.8988ZM114.889 57.9068C114.537 57.9068 114.121 57.7948 113.641 57.5708C113.129 57.3468 112.697 56.8988 112.345 56.2268C111.961 55.5868 111.769 54.6108 111.769 53.2988C111.769 51.9228 112.009 50.1148 112.489 47.8748C112.937 45.6668 113.577 43.2188 114.409 40.5308C115.209 37.8108 116.153 35.0268 117.241 32.1788C118.361 29.3308 119.545 26.5948 120.793 23.9708C122.073 21.3148 123.385 18.9308 124.729 16.8188C126.105 14.7068 127.465 13.0268 128.809 11.7788C130.153 10.5308 131.449 9.9068 132.697 9.9068C133.529 9.9068 134.073 10.1628 134.329 10.6748C134.585 11.1548 134.713 11.7148 134.713 12.3548C134.713 13.7308 134.329 15.2348 133.561 16.8668C132.825 18.4988 131.833 20.1468 130.585 21.8108C129.337 23.4428 127.929 24.9948 126.361 26.4668C124.825 27.9388 123.241 29.2028 121.609 30.2588C121.481 30.5788 121.353 30.8988 121.225 31.2188C121.097 31.5388 120.969 31.8588 120.841 32.1788C121.193 32.3068 121.465 32.5308 121.657 32.8508C121.881 33.1708 122.009 33.5068 122.041 33.8588C122.297 35.2348 122.553 36.4668 122.809 37.5548C123.065 38.6108 123.449 39.4428 123.961 40.0508C124.505 40.6588 125.273 40.9628 126.265 40.9628C127.385 40.9628 128.377 40.5468 129.241 39.7148C130.105 38.8828 130.985 37.7148 131.881 36.2108L132.937 36.9788C131.913 39.0268 130.761 40.5308 129.481 41.4908C128.201 42.4188 127.049 42.8828 126.025 42.8828C125.481 42.8828 124.905 42.7708 124.297 42.5468C123.721 42.3228 123.161 42.0028 122.617 41.5868C122.585 43.5708 122.345 45.5228 121.897 47.4428C121.481 49.3948 120.905 51.1548 120.169 52.7228C119.433 54.2908 118.601 55.5388 117.673 56.4668C116.777 57.4268 115.849 57.9068 114.889 57.9068ZM116.233 54.9308C116.585 54.9308 116.953 54.6268 117.337 54.0188C117.753 53.4108 118.153 52.6108 118.537 51.6188C118.921 50.6268 119.273 49.5228 119.593 48.3068C119.913 47.1228 120.169 45.9388 120.361 44.7548C120.553 43.6028 120.649 42.5468 120.649 41.5868C120.649 40.6588 120.537 39.8428 120.313 39.1388C120.121 38.4028 119.769 37.5868 119.257 36.6908C118.521 38.8988 117.865 41.0268 117.289 43.0748C116.713 45.1228 116.265 46.9788 115.945 48.6428C115.625 50.3388 115.465 51.7468 115.465 52.8668C115.465 54.2428 115.721 54.9308 116.233 54.9308ZM123.001 26.8988C124.953 25.0748 126.617 23.2988 127.993 21.5708C129.369 19.8428 130.409 18.3228 131.113 17.0108C131.849 15.6668 132.217 14.7228 132.217 14.1788C132.217 13.9228 132.089 13.7948 131.833 13.7948C131.065 13.7948 130.185 14.3868 129.193 15.5708C128.201 16.7228 127.177 18.2908 126.121 20.2748C125.065 22.2588 124.025 24.4668 123.001 26.8988ZM136.349 46.5788C134.301 46.5788 132.717 46.0188 131.597 44.8988C130.509 43.8108 129.965 42.4348 129.965 40.7708C129.965 39.3628 130.317 37.8748 131.021 36.3068C131.757 34.7068 132.733 33.2188 133.949 31.8428C135.165 30.4348 136.509 29.2988 137.981 28.4348C139.453 27.5708 140.925 27.1388 142.397 27.1388C143.229 27.1388 144.013 27.3628 144.749 27.8108C145.517 28.2268 145.901 29.0748 145.901 30.3548C145.901 31.5708 145.549 32.7068 144.845 33.7628C144.141 34.8188 143.197 35.7628 142.013 36.5948C140.829 37.4268 139.517 38.1148 138.077 38.6588C136.669 39.1708 135.245 39.5068 133.805 39.6668C133.773 39.7948 133.741 39.9388 133.709 40.0988C133.709 40.2268 133.709 40.4508 133.709 40.7708C133.709 40.9308 133.725 41.2188 133.757 41.6348C133.821 42.0188 133.965 42.4348 134.189 42.8828C134.413 43.3308 134.781 43.7148 135.293 44.0348C135.805 44.3548 136.509 44.5148 137.405 44.5148C138.749 44.5148 140.093 44.1468 141.437 43.4108C142.813 42.6428 144.093 41.6348 145.277 40.3868C146.493 39.1388 147.501 37.7468 148.301 36.2108L149.261 36.9788C148.397 38.8988 147.277 40.5788 145.901 42.0188C144.557 43.4588 143.053 44.5788 141.389 45.3788C139.757 46.1788 138.077 46.5788 136.349 46.5788ZM134.333 37.8908C135.165 37.7948 136.093 37.5068 137.117 37.0268C138.141 36.5468 139.117 35.9388 140.045 35.2028C141.005 34.4668 141.789 33.6668 142.397 32.8028C143.005 31.9068 143.309 31.0108 143.309 30.1148C143.309 29.7628 143.245 29.5228 143.117 29.3948C142.989 29.2668 142.781 29.2028 142.493 29.2028C141.757 29.2028 140.989 29.4748 140.189 30.0188C139.389 30.5308 138.605 31.2188 137.837 32.0828C137.069 32.9148 136.381 33.8428 135.773 34.8668C135.165 35.8908 134.685 36.8988 134.333 37.8908ZM170.793 48.6428C169.033 48.6428 167.817 48.2908 167.145 47.5868C166.473 46.9148 166.121 46.0348 166.089 44.9468C166.089 44.0188 166.265 42.9148 166.617 41.6348C167.001 40.3228 167.385 39.0748 167.769 37.8908C168.537 35.6188 169.337 33.3788 170.169 31.1708C171.001 28.9628 171.833 26.8348 172.665 24.7868C173.529 22.7388 174.345 20.7868 175.113 18.9308C175.913 17.0748 176.649 15.3628 177.321 13.7948C175.145 13.8268 173.257 13.8908 171.657 13.9868C170.089 14.0828 168.649 14.2108 167.337 14.3708C166.025 14.4988 164.665 14.6908 163.257 14.9468C163.417 13.6028 164.041 12.5788 165.129 11.8748C166.249 11.1388 167.737 10.6268 169.593 10.3388C171.449 10.0508 173.577 9.9068 175.977 9.9068C177.225 9.9068 178.393 9.9388 179.481 10.0028C180.601 10.0348 181.657 10.0988 182.649 10.1948C183.673 10.2908 184.665 10.3868 185.625 10.4828C187.641 10.6748 189.241 10.8028 190.425 10.8668C191.641 10.9308 192.505 10.9628 193.017 10.9628C192.057 11.8588 190.841 12.5148 189.369 12.9308C187.929 13.3148 186.409 13.5548 184.809 13.6508C183.209 13.7468 181.689 13.7948 180.249 13.7948C178.713 17.5708 177.305 21.4908 176.025 25.5548C174.745 29.6188 173.561 33.6348 172.473 37.6028C172.057 39.1388 171.705 40.4508 171.417 41.5388C171.161 42.5948 170.969 43.5708 170.841 44.4668C170.713 45.3308 170.649 46.2588 170.649 47.2508C170.649 47.4108 170.649 47.5868 170.649 47.7788C170.681 48.0028 170.729 48.2908 170.793 48.6428ZM184.167 45.9068C182.759 45.9068 181.703 45.4908 180.999 44.6588C180.295 43.8268 179.943 42.8188 179.943 41.6348C179.943 40.8988 180.071 39.9708 180.327 38.8508C180.583 37.7308 180.935 36.5628 181.383 35.3468C181.863 34.0988 182.407 32.9308 183.015 31.8428C183.623 30.7548 184.279 29.8748 184.983 29.2028C185.687 28.4988 186.391 28.1468 187.095 28.1468C187.479 28.1468 187.815 28.2748 188.103 28.5308C188.391 28.7548 188.535 29.0908 188.535 29.5388C188.535 29.9548 188.279 30.5788 187.767 31.4108C187.287 32.2428 186.711 33.2028 186.039 34.2908C185.399 35.3788 184.823 36.5148 184.311 37.6988C183.831 38.8508 183.591 39.9548 183.591 41.0108C183.591 42.0348 183.767 42.7228 184.119 43.0748C184.503 43.3948 185.047 43.5548 185.751 43.5548C186.839 43.5548 188.023 43.0108 189.303 41.9228C190.583 40.8348 191.911 38.9308 193.287 36.2108L194.007 36.9788C192.887 39.7948 191.463 41.9868 189.735 43.5548C188.007 45.1228 186.151 45.9068 184.167 45.9068ZM189.831 24.2588C189.223 24.2588 188.663 24.1148 188.151 23.8268C187.671 23.5068 187.431 23.0268 187.431 22.3868C187.431 21.6188 187.847 20.9628 188.679 20.4188C189.511 19.8748 190.375 19.6028 191.271 19.6028C191.847 19.6028 192.327 19.7308 192.711 19.9868C193.127 20.2428 193.335 20.7068 193.335 21.3788C193.335 22.0508 192.967 22.7068 192.231 23.3468C191.495 23.9548 190.695 24.2588 189.831 24.2588ZM217.15 45.9548C215.902 45.9548 214.974 45.5868 214.366 44.8508C213.758 44.1148 213.454 43.2348 213.454 42.2108C213.454 41.4748 213.566 40.7388 213.79 40.0028C214.014 39.2668 214.238 38.5468 214.462 37.8428C214.686 37.1068 214.798 36.4508 214.798 35.8748C214.798 35.3308 214.686 34.9628 214.462 34.7708C214.27 34.5468 214.014 34.4348 213.694 34.4348C212.958 34.4348 212.094 34.9948 211.102 36.1148C210.142 37.2348 208.942 38.8668 207.502 41.0108C206.99 41.7788 206.51 42.5948 206.062 43.4588C205.614 44.2908 205.214 44.9948 204.862 45.5708C204.574 45.5708 204.19 45.5228 203.71 45.4268C203.262 45.3308 202.862 45.1868 202.51 44.9948C202.158 44.8348 201.982 44.6108 201.982 44.3228C201.982 44.0348 202.142 43.4748 202.462 42.6428C202.782 41.8108 203.15 40.8508 203.566 39.7628C203.982 38.6428 204.35 37.5548 204.67 36.4988C204.99 35.4108 205.15 34.4988 205.15 33.7628C205.15 33.3148 205.07 32.9628 204.91 32.7068C204.75 32.4508 204.494 32.3228 204.142 32.3228C203.47 32.3228 202.654 32.7228 201.694 33.5228C200.766 34.3228 199.774 35.3788 198.718 36.6908C197.694 37.9708 196.718 39.4108 195.79 41.0108C194.894 42.5788 194.158 44.1628 193.582 45.7628C193.23 45.7628 192.798 45.6828 192.286 45.5228C191.774 45.3948 191.326 45.2188 190.942 44.9948C190.558 44.8028 190.366 44.6268 190.366 44.4668C190.366 44.4348 190.478 43.9868 190.702 43.1228C190.926 42.2268 191.198 41.1228 191.518 39.8108C191.838 38.4988 192.174 37.1548 192.526 35.7788C192.878 34.4028 193.182 33.2028 193.438 32.1788C193.534 31.8268 193.886 31.5228 194.494 31.2668C195.102 30.9788 195.63 30.8348 196.078 30.8348C196.526 30.8348 196.91 30.9788 197.23 31.2668C197.55 31.5548 197.71 31.9388 197.71 32.4188C197.71 32.7388 197.646 33.2028 197.518 33.8108C197.39 34.4188 197.23 35.1068 197.038 35.8748C197.71 34.9788 198.414 34.0988 199.15 33.2348C199.918 32.3388 200.702 31.5388 201.502 30.8348C202.334 30.1308 203.15 29.5708 203.95 29.1548C204.782 28.7388 205.598 28.5308 206.398 28.5308C207.582 28.5308 208.382 28.9628 208.798 29.8268C209.214 30.6588 209.422 31.5708 209.422 32.5628C209.422 32.9788 209.39 33.3948 209.326 33.8108C209.262 34.1948 209.166 34.5948 209.038 35.0108C208.942 35.3948 208.798 35.8588 208.606 36.4028C209.214 35.5068 209.87 34.6908 210.574 33.9548C211.31 33.1868 212.094 32.5788 212.926 32.1308C213.758 31.6828 214.638 31.4588 215.566 31.4588C216.814 31.4588 217.678 31.8428 218.158 32.6108C218.638 33.3468 218.878 34.1628 218.878 35.0588C218.878 35.8908 218.734 36.7708 218.446 37.6988C218.19 38.5948 217.918 39.4588 217.63 40.2908C217.374 41.0908 217.246 41.7788 217.246 42.3548C217.246 42.6748 217.326 42.9788 217.486 43.2668C217.646 43.5228 217.966 43.6508 218.446 43.6508C219.31 43.6508 220.142 43.2508 220.942 42.4508C221.742 41.6508 222.478 40.6748 223.15 39.5228C223.854 38.3388 224.446 37.2188 224.926 36.1628L225.742 37.1708C225.23 38.4828 224.558 39.8268 223.726 41.2028C222.926 42.5468 221.982 43.6668 220.894 44.5628C219.806 45.4908 218.558 45.9548 217.15 45.9548ZM229.302 46.5788C227.254 46.5788 225.67 46.0188 224.55 44.8988C223.462 43.8108 222.918 42.4348 222.918 40.7708C222.918 39.3628 223.27 37.8748 223.974 36.3068C224.71 34.7068 225.686 33.2188 226.902 31.8428C228.118 30.4348 229.462 29.2988 230.934 28.4348C232.406 27.5708 233.878 27.1388 235.35 27.1388C236.182 27.1388 236.966 27.3628 237.702 27.8108C238.47 28.2268 238.854 29.0748 238.854 30.3548C238.854 31.5708 238.502 32.7068 237.798 33.7628C237.094 34.8188 236.15 35.7628 234.966 36.5948C233.782 37.4268 232.47 38.1148 231.03 38.6588C229.622 39.1708 228.198 39.5068 226.758 39.6668C226.726 39.7948 226.694 39.9388 226.662 40.0988C226.662 40.2268 226.662 40.4508 226.662 40.7708C226.662 40.9308 226.678 41.2188 226.71 41.6348C226.774 42.0188 226.918 42.4348 227.142 42.8828C227.366 43.3308 227.734 43.7148 228.246 44.0348C228.758 44.3548 229.462 44.5148 230.358 44.5148C231.702 44.5148 233.046 44.1468 234.39 43.4108C235.766 42.6428 237.046 41.6348 238.23 40.3868C239.446 39.1388 240.454 37.7468 241.254 36.2108L242.214 36.9788C241.35 38.8988 240.23 40.5788 238.854 42.0188C237.51 43.4588 236.006 44.5788 234.342 45.3788C232.71 46.1788 231.03 46.5788 229.302 46.5788ZM227.286 37.8908C228.118 37.7948 229.046 37.5068 230.07 37.0268C231.094 36.5468 232.07 35.9388 232.998 35.2028C233.958 34.4668 234.742 33.6668 235.35 32.8028C235.958 31.9068 236.262 31.0108 236.262 30.1148C236.262 29.7628 236.198 29.5228 236.07 29.3948C235.942 29.2668 235.734 29.2028 235.446 29.2028C234.71 29.2028 233.942 29.4748 233.142 30.0188C232.342 30.5308 231.558 31.2188 230.79 32.0828C230.022 32.9148 229.334 33.8428 228.726 34.8668C228.118 35.8908 227.638 36.8988 227.286 37.8908Z" fill="#C58548"/>
<g>
<path d="M69.9212 48.6428C67.4892 48.6428 65.4892 48.0668 63.9212 46.9148C62.3852 45.7628 61.2492 44.2748 60.5132 42.4508C59.8092 40.6268 59.4572 38.7388 59.4572 36.7868C59.4572 34.2588 59.8412 31.7308 60.6092 29.2028C61.3772 26.6428 62.4332 24.2108 63.7772 21.9068C65.1532 19.6028 66.7052 17.5548 68.4332 15.7628C70.1612 13.9708 72.0012 12.5628 73.9532 11.5388C75.9372 10.4828 77.9052 9.95479 79.8572 9.95479C81.2652 9.95479 82.4492 10.2908 83.4092 10.9628C84.3692 11.6028 84.8492 12.7228 84.8492 14.3228C84.8492 15.2828 84.6732 16.3548 84.3212 17.5388C84.0012 18.7228 83.5532 19.8748 82.9772 20.9948C82.4332 22.0828 81.8092 22.9788 81.1052 23.6828C80.4012 24.3868 79.6812 24.7388 78.9452 24.7388C78.6252 24.7388 78.2892 24.6268 77.9372 24.4028C77.5852 24.1788 77.2652 23.7948 76.9772 23.2508C77.4572 22.7068 78.0012 22.0508 78.6092 21.2828C79.2172 20.4828 79.7932 19.6508 80.3372 18.7868C80.8812 17.8908 81.3292 17.0268 81.6812 16.1948C82.0332 15.3308 82.2092 14.5788 82.2092 13.9388C82.2092 13.3628 82.0492 12.9148 81.7292 12.5948C81.4092 12.2428 80.8492 12.0668 80.0492 12.0668C78.6412 12.0668 77.1852 12.5948 75.6812 13.6508C74.2092 14.7068 72.7852 16.1308 71.4092 17.9228C70.0332 19.6828 68.7852 21.6668 67.6652 23.8748C66.5772 26.0508 65.7132 28.3068 65.0732 30.6428C64.4332 32.9468 64.1132 35.1388 64.1132 37.2188C64.1132 38.7548 64.3372 40.2268 64.7852 41.6348C65.2652 43.0108 66.0172 44.1308 67.0412 44.9948C68.0652 45.8908 69.4092 46.3388 71.0732 46.3388C72.8012 46.3388 74.5132 45.8588 76.2092 44.8988C77.9372 43.9388 79.5052 42.6748 80.9132 41.1068C82.3532 39.5388 83.5052 37.8588 84.3692 36.0668L85.6172 36.8828C84.4972 39.0268 83.1532 40.9948 81.5852 42.7868C80.0172 44.5468 78.2412 45.9548 76.2572 47.0108C74.3052 48.0988 72.1932 48.6428 69.9212 48.6428ZM86.4017 46.0028C84.9617 46.0028 83.9697 45.5228 83.4257 44.5628C82.9137 43.6348 82.6577 42.6108 82.6577 41.4908C82.6577 40.4668 82.8177 39.4268 83.1377 38.3708C83.4577 37.2828 83.8897 36.2748 84.4337 35.3468C85.0097 34.4188 85.6337 33.6828 86.3057 33.1388C87.0097 32.5628 87.7137 32.2748 88.4177 32.2748C88.6417 32.2748 88.8977 32.3228 89.1857 32.4188C89.5057 32.4828 89.7297 32.5948 89.8577 32.7548C89.4737 33.2348 89.0737 33.8268 88.6577 34.5308C88.2737 35.2348 87.9057 35.9868 87.5537 36.7868C87.2337 37.5548 86.9777 38.3388 86.7857 39.1388C86.5937 39.9388 86.4977 40.6748 86.4977 41.3468C86.4977 41.9868 86.6097 42.5148 86.8337 42.9308C87.0897 43.3468 87.5217 43.5548 88.1297 43.5548C88.7377 43.5548 89.4577 43.2188 90.2897 42.5468C91.1537 41.8428 91.9697 41.0428 92.7377 40.1468C91.7137 39.2188 90.9777 38.2108 90.5297 37.1228C90.0817 36.0028 89.8577 34.6588 89.8577 33.0908C89.8577 32.4188 90.0177 31.6508 90.3377 30.7868C90.6897 29.9228 91.2337 29.1708 91.9697 28.5308C92.7377 27.8908 93.7617 27.5708 95.0417 27.5708C96.4177 27.5708 97.3777 27.9548 97.9217 28.7228C98.4977 29.4908 98.7857 30.4028 98.7857 31.4588C98.7857 32.6428 98.4657 33.9708 97.8257 35.4428C97.2177 36.9148 96.4817 38.3068 95.6177 39.6188C96.0017 39.8108 96.4497 39.9068 96.9617 39.9068C97.4417 39.9068 98.0177 39.7948 98.6897 39.5708C99.3617 39.3468 100.018 38.9788 100.658 38.4668C101.298 37.9228 101.81 37.2028 102.194 36.3068L103.058 36.9308C102.354 38.5628 101.41 39.7628 100.226 40.5308C99.0737 41.2668 97.9377 41.6348 96.8177 41.6348C96.4017 41.6348 95.9857 41.6028 95.5697 41.5388C95.1537 41.4428 94.7697 41.3308 94.4177 41.2028C93.3297 42.4828 92.0817 43.6028 90.6737 44.5628C89.2657 45.5228 87.8417 46.0028 86.4017 46.0028ZM93.9857 38.6108C94.7537 37.4908 95.4097 36.2908 95.9537 35.0108C96.4977 33.7308 96.7697 32.5468 96.7697 31.4588C96.7697 30.7228 96.6577 30.1948 96.4337 29.8748C96.2097 29.5228 95.8737 29.3468 95.4257 29.3468C94.8177 29.3468 94.1937 29.7788 93.5537 30.6428C92.9137 31.5068 92.5937 32.5948 92.5937 33.9068C92.5937 34.5788 92.7057 35.3948 92.9297 36.3548C93.1857 37.3148 93.5377 38.0668 93.9857 38.6108ZM101.045 57.9068C100.693 57.9068 100.277 57.7948 99.7971 57.5708C99.2851 57.3468 98.8531 56.8988 98.5011 56.2268C98.1171 55.5868 97.9251 54.6108 97.9251 53.2988C97.9251 51.9228 98.1651 50.1148 98.6451 47.8748C99.0931 45.6668 99.7331 43.2188 100.565 40.5308C101.365 37.8108 102.309 35.0268 103.397 32.1788C104.517 29.3308 105.701 26.5948 106.949 23.9708C108.229 21.3148 109.541 18.9308 110.885 16.8188C112.261 14.7068 113.621 13.0268 114.965 11.7788C116.309 10.5308 117.605 9.9068 118.853 9.9068C119.685 9.9068 120.229 10.1628 120.485 10.6748C120.741 11.1548 120.869 11.7148 120.869 12.3548C120.869 13.7308 120.485 15.2348 119.717 16.8668C118.981 18.4988 117.989 20.1468 116.741 21.8108C115.493 23.4428 114.085 24.9948 112.517 26.4668C110.981 27.9388 109.397 29.2028 107.765 30.2588C107.637 30.5788 107.509 30.8988 107.381 31.2188C107.253 31.5388 107.125 31.8588 106.997 32.1788C107.349 32.3068 107.621 32.5308 107.813 32.8508C108.037 33.1708 108.165 33.5068 108.197 33.8588C108.453 35.2348 108.709 36.4668 108.965 37.5548C109.221 38.6108 109.605 39.4428 110.117 40.0508C110.661 40.6588 111.429 40.9628 112.421 40.9628C113.541 40.9628 114.533 40.5468 115.397 39.7148C116.261 38.8828 117.141 37.7148 118.037 36.2108L119.093 36.9788C118.069 39.0268 116.917 40.5308 115.637 41.4908C114.357 42.4188 113.205 42.8828 112.181 42.8828C111.637 42.8828 111.061 42.7708 110.453 42.5468C109.877 42.3228 109.317 42.0028 108.773 41.5868C108.741 43.5708 108.501 45.5228 108.053 47.4428C107.637 49.3948 107.061 51.1548 106.325 52.7228C105.589 54.2908 104.757 55.5388 103.829 56.4668C102.933 57.4268 102.005 57.9068 101.045 57.9068ZM102.389 54.9308C102.741 54.9308 103.109 54.6268 103.493 54.0188C103.909 53.4108 104.309 52.6108 104.693 51.6188C105.077 50.6268 105.429 49.5228 105.749 48.3068C106.069 47.1228 106.325 45.9388 106.517 44.7548C106.709 43.6028 106.805 42.5468 106.805 41.5868C106.805 40.6588 106.693 39.8428 106.469 39.1388C106.277 38.4028 105.925 37.5868 105.413 36.6908C104.677 38.8988 104.021 41.0268 103.445 43.0748C102.869 45.1228 102.421 46.9788 102.101 48.6428C101.781 50.3388 101.621 51.7468 101.621 52.8668C101.621 54.2428 101.877 54.9308 102.389 54.9308ZM109.157 26.8988C111.109 25.0748 112.773 23.2988 114.149 21.5708C115.525 19.8428 116.565 18.3228 117.269 17.0108C118.005 15.6668 118.373 14.7228 118.373 14.1788C118.373 13.9228 118.245 13.7948 117.989 13.7948C117.221 13.7948 116.341 14.3868 115.349 15.5708C114.357 16.7228 113.333 18.2908 112.277 20.2748C111.221 22.2588 110.181 24.4668 109.157 26.8988ZM116.889 57.9068C116.537 57.9068 116.121 57.7948 115.641 57.5708C115.129 57.3468 114.697 56.8988 114.345 56.2268C113.961 55.5868 113.769 54.6108 113.769 53.2988C113.769 51.9228 114.009 50.1148 114.489 47.8748C114.937 45.6668 115.577 43.2188 116.409 40.5308C117.209 37.8108 118.153 35.0268 119.241 32.1788C120.361 29.3308 121.545 26.5948 122.793 23.9708C124.073 21.3148 125.385 18.9308 126.729 16.8188C128.105 14.7068 129.465 13.0268 130.809 11.7788C132.153 10.5308 133.449 9.9068 134.697 9.9068C135.529 9.9068 136.073 10.1628 136.329 10.6748C136.585 11.1548 136.713 11.7148 136.713 12.3548C136.713 13.7308 136.329 15.2348 135.561 16.8668C134.825 18.4988 133.833 20.1468 132.585 21.8108C131.337 23.4428 129.929 24.9948 128.361 26.4668C126.825 27.9388 125.241 29.2028 123.609 30.2588C123.481 30.5788 123.353 30.8988 123.225 31.2188C123.097 31.5388 122.969 31.8588 122.841 32.1788C123.193 32.3068 123.465 32.5308 123.657 32.8508C123.881 33.1708 124.009 33.5068 124.041 33.8588C124.297 35.2348 124.553 36.4668 124.809 37.5548C125.065 38.6108 125.449 39.4428 125.961 40.0508C126.505 40.6588 127.273 40.9628 128.265 40.9628C129.385 40.9628 130.377 40.5468 131.241 39.7148C132.105 38.8828 132.985 37.7148 133.881 36.2108L134.937 36.9788C133.913 39.0268 132.761 40.5308 131.481 41.4908C130.201 42.4188 129.049 42.8828 128.025 42.8828C127.481 42.8828 126.905 42.7708 126.297 42.5468C125.721 42.3228 125.161 42.0028 124.617 41.5868C124.585 43.5708 124.345 45.5228 123.897 47.4428C123.481 49.3948 122.905 51.1548 122.169 52.7228C121.433 54.2908 120.601 55.5388 119.673 56.4668C118.777 57.4268 117.849 57.9068 116.889 57.9068ZM118.233 54.9308C118.585 54.9308 118.953 54.6268 119.337 54.0188C119.753 53.4108 120.153 52.6108 120.537 51.6188C120.921 50.6268 121.273 49.5228 121.593 48.3068C121.913 47.1228 122.169 45.9388 122.361 44.7548C122.553 43.6028 122.649 42.5468 122.649 41.5868C122.649 40.6588 122.537 39.8428 122.313 39.1388C122.121 38.4028 121.769 37.5868 121.257 36.6908C120.521 38.8988 119.865 41.0268 119.289 43.0748C118.713 45.1228 118.265 46.9788 117.945 48.6428C117.625 50.3388 117.465 51.7468 117.465 52.8668C117.465 54.2428 117.721 54.9308 118.233 54.9308ZM125.001 26.8988C126.953 25.0748 128.617 23.2988 129.993 21.5708C131.369 19.8428 132.409 18.3228 133.113 17.0108C133.849 15.6668 134.217 14.7228 134.217 14.1788C134.217 13.9228 134.089 13.7948 133.833 13.7948C133.065 13.7948 132.185 14.3868 131.193 15.5708C130.201 16.7228 129.177 18.2908 128.121 20.2748C127.065 22.2588 126.025 24.4668 125.001 26.8988ZM138.349 46.5788C136.301 46.5788 134.717 46.0188 133.597 44.8988C132.509 43.8108 131.965 42.4348 131.965 40.7708C131.965 39.3628 132.317 37.8748 133.021 36.3068C133.757 34.7068 134.733 33.2188 135.949 31.8428C137.165 30.4348 138.509 29.2988 139.981 28.4348C141.453 27.5708 142.925 27.1388 144.397 27.1388C145.229 27.1388 146.013 27.3628 146.749 27.8108C147.517 28.2268 147.901 29.0748 147.901 30.3548C147.901 31.5708 147.549 32.7068 146.845 33.7628C146.141 34.8188 145.197 35.7628 144.013 36.5948C142.829 37.4268 141.517 38.1148 140.077 38.6588C138.669 39.1708 137.245 39.5068 135.805 39.6668C135.773 39.7948 135.741 39.9388 135.709 40.0988C135.709 40.2268 135.709 40.4508 135.709 40.7708C135.709 40.9308 135.725 41.2188 135.757 41.6348C135.821 42.0188 135.965 42.4348 136.189 42.8828C136.413 43.3308 136.781 43.7148 137.293 44.0348C137.805 44.3548 138.509 44.5148 139.405 44.5148C140.749 44.5148 142.093 44.1468 143.437 43.4108C144.813 42.6428 146.093 41.6348 147.277 40.3868C148.493 39.1388 149.501 37.7468 150.301 36.2108L151.261 36.9788C150.397 38.8988 149.277 40.5788 147.901 42.0188C146.557 43.4588 145.053 44.5788 143.389 45.3788C141.757 46.1788 140.077 46.5788 138.349 46.5788ZM136.333 37.8908C137.165 37.7948 138.093 37.5068 139.117 37.0268C140.141 36.5468 141.117 35.9388 142.045 35.2028C143.005 34.4668 143.789 33.6668 144.397 32.8028C145.005 31.9068 145.309 31.0108 145.309 30.1148C145.309 29.7628 145.245 29.5228 145.117 29.3948C144.989 29.2668 144.781 29.2028 144.493 29.2028C143.757 29.2028 142.989 29.4748 142.189 30.0188C141.389 30.5308 140.605 31.2188 139.837 32.0828C139.069 32.9148 138.381 33.8428 137.773 34.8668C137.165 35.8908 136.685 36.8988 136.333 37.8908ZM172.793 48.6428C171.033 48.6428 169.817 48.2908 169.145 47.5868C168.473 46.9148 168.121 46.0348 168.089 44.9468C168.089 44.0188 168.265 42.9148 168.617 41.6348C169.001 40.3228 169.385 39.0748 169.769 37.8908C170.537 35.6188 171.337 33.3788 172.169 31.1708C173.001 28.9628 173.833 26.8348 174.665 24.7868C175.529 22.7388 176.345 20.7868 177.113 18.9308C177.913 17.0748 178.649 15.3628 179.321 13.7948C177.145 13.8268 175.257 13.8908 173.657 13.9868C172.089 14.0828 170.649 14.2108 169.337 14.3708C168.025 14.4988 166.665 14.6908 165.257 14.9468C165.417 13.6028 166.041 12.5788 167.129 11.8748C168.249 11.1388 169.737 10.6268 171.593 10.3388C173.449 10.0508 175.577 9.9068 177.977 9.9068C179.225 9.9068 180.393 9.9388 181.481 10.0028C182.601 10.0348 183.657 10.0988 184.649 10.1948C185.673 10.2908 186.665 10.3868 187.625 10.4828C189.641 10.6748 191.241 10.8028 192.425 10.8668C193.641 10.9308 194.505 10.9628 195.017 10.9628C194.057 11.8588 192.841 12.5148 191.369 12.9308C189.929 13.3148 188.409 13.5548 186.809 13.6508C185.209 13.7468 183.689 13.7948 182.249 13.7948C180.713 17.5708 179.305 21.4908 178.025 25.5548C176.745 29.6188 175.561 33.6348 174.473 37.6028C174.057 39.1388 173.705 40.4508 173.417 41.5388C173.161 42.5948 172.969 43.5708 172.841 44.4668C172.713 45.3308 172.649 46.2588 172.649 47.2508C172.649 47.4108 172.649 47.5868 172.649 47.7788C172.681 48.0028 172.729 48.2908 172.793 48.6428ZM186.167 45.9068C184.759 45.9068 183.703 45.4908 182.999 44.6588C182.295 43.8268 181.943 42.8188 181.943 41.6348C181.943 40.8988 182.071 39.9708 182.327 38.8508C182.583 37.7308 182.935 36.5628 183.383 35.3468C183.863 34.0988 184.407 32.9308 185.015 31.8428C185.623 30.7548 186.279 29.8748 186.983 29.2028C187.687 28.4988 188.391 28.1468 189.095 28.1468C189.479 28.1468 189.815 28.2748 190.103 28.5308C190.391 28.7548 190.535 29.0908 190.535 29.5388C190.535 29.9548 190.279 30.5788 189.767 31.4108C189.287 32.2428 188.711 33.2028 188.039 34.2908C187.399 35.3788 186.823 36.5148 186.311 37.6988C185.831 38.8508 185.591 39.9548 185.591 41.0108C185.591 42.0348 185.767 42.7228 186.119 43.0748C186.503 43.3948 187.047 43.5548 187.751 43.5548C188.839 43.5548 190.023 43.0108 191.303 41.9228C192.583 40.8348 193.911 38.9308 195.287 36.2108L196.007 36.9788C194.887 39.7948 193.463 41.9868 191.735 43.5548C190.007 45.1228 188.151 45.9068 186.167 45.9068ZM191.831 24.2588C191.223 24.2588 190.663 24.1148 190.151 23.8268C189.671 23.5068 189.431 23.0268 189.431 22.3868C189.431 21.6188 189.847 20.9628 190.679 20.4188C191.511 19.8748 192.375 19.6028 193.271 19.6028C193.847 19.6028 194.327 19.7308 194.711 19.9868C195.127 20.2428 195.335 20.7068 195.335 21.3788C195.335 22.0508 194.967 22.7068 194.231 23.3468C193.495 23.9548 192.695 24.2588 191.831 24.2588ZM219.15 45.9548C217.902 45.9548 216.974 45.5868 216.366 44.8508C215.758 44.1148 215.454 43.2348 215.454 42.2108C215.454 41.4748 215.566 40.7388 215.79 40.0028C216.014 39.2668 216.238 38.5468 216.462 37.8428C216.686 37.1068 216.798 36.4508 216.798 35.8748C216.798 35.3308 216.686 34.9628 216.462 34.7708C216.27 34.5468 216.014 34.4348 215.694 34.4348C214.958 34.4348 214.094 34.9948 213.102 36.1148C212.142 37.2348 210.942 38.8668 209.502 41.0108C208.99 41.7788 208.51 42.5948 208.062 43.4588C207.614 44.2908 207.214 44.9948 206.862 45.5708C206.574 45.5708 206.19 45.5228 205.71 45.4268C205.262 45.3308 204.862 45.1868 204.51 44.9948C204.158 44.8348 203.982 44.6108 203.982 44.3228C203.982 44.0348 204.142 43.4748 204.462 42.6428C204.782 41.8108 205.15 40.8508 205.566 39.7628C205.982 38.6428 206.35 37.5548 206.67 36.4988C206.99 35.4108 207.15 34.4988 207.15 33.7628C207.15 33.3148 207.07 32.9628 206.91 32.7068C206.75 32.4508 206.494 32.3228 206.142 32.3228C205.47 32.3228 204.654 32.7228 203.694 33.5228C202.766 34.3228 201.774 35.3788 200.718 36.6908C199.694 37.9708 198.718 39.4108 197.79 41.0108C196.894 42.5788 196.158 44.1628 195.582 45.7628C195.23 45.7628 194.798 45.6828 194.286 45.5228C193.774 45.3948 193.326 45.2188 192.942 44.9948C192.558 44.8028 192.366 44.6268 192.366 44.4668C192.366 44.4348 192.478 43.9868 192.702 43.1228C192.926 42.2268 193.198 41.1228 193.518 39.8108C193.838 38.4988 194.174 37.1548 194.526 35.7788C194.878 34.4028 195.182 33.2028 195.438 32.1788C195.534 31.8268 195.886 31.5228 196.494 31.2668C197.102 30.9788 197.63 30.8348 198.078 30.8348C198.526 30.8348 198.91 30.9788 199.23 31.2668C199.55 31.5548 199.71 31.9388 199.71 32.4188C199.71 32.7388 199.646 33.2028 199.518 33.8108C199.39 34.4188 199.23 35.1068 199.038 35.8748C199.71 34.9788 200.414 34.0988 201.15 33.2348C201.918 32.3388 202.702 31.5388 203.502 30.8348C204.334 30.1308 205.15 29.5708 205.95 29.1548C206.782 28.7388 207.598 28.5308 208.398 28.5308C209.582 28.5308 210.382 28.9628 210.798 29.8268C211.214 30.6588 211.422 31.5708 211.422 32.5628C211.422 32.9788 211.39 33.3948 211.326 33.8108C211.262 34.1948 211.166 34.5948 211.038 35.0108C210.942 35.3948 210.798 35.8588 210.606 36.4028C211.214 35.5068 211.87 34.6908 212.574 33.9548C213.31 33.1868 214.094 32.5788 214.926 32.1308C215.758 31.6828 216.638 31.4588 217.566 31.4588C218.814 31.4588 219.678 31.8428 220.158 32.6108C220.638 33.3468 220.878 34.1628 220.878 35.0588C220.878 35.8908 220.734 36.7708 220.446 37.6988C220.19 38.5948 219.918 39.4588 219.63 40.2908C219.374 41.0908 219.246 41.7788 219.246 42.3548C219.246 42.6748 219.326 42.9788 219.486 43.2668C219.646 43.5228 219.966 43.6508 220.446 43.6508C221.31 43.6508 222.142 43.2508 222.942 42.4508C223.742 41.6508 224.478 40.6748 225.15 39.5228C225.854 38.3388 226.446 37.2188 226.926 36.1628L227.742 37.1708C227.23 38.4828 226.558 39.8268 225.726 41.2028C224.926 42.5468 223.982 43.6668 222.894 44.5628C221.806 45.4908 220.558 45.9548 219.15 45.9548ZM231.302 46.5788C229.254 46.5788 227.67 46.0188 226.55 44.8988C225.462 43.8108 224.918 42.4348 224.918 40.7708C224.918 39.3628 225.27 37.8748 225.974 36.3068C226.71 34.7068 227.686 33.2188 228.902 31.8428C230.118 30.4348 231.462 29.2988 232.934 28.4348C234.406 27.5708 235.878 27.1388 237.35 27.1388C238.182 27.1388 238.966 27.3628 239.702 27.8108C240.47 28.2268 240.854 29.0748 240.854 30.3548C240.854 31.5708 240.502 32.7068 239.798 33.7628C239.094 34.8188 238.15 35.7628 236.966 36.5948C235.782 37.4268 234.47 38.1148 233.03 38.6588C231.622 39.1708 230.198 39.5068 228.758 39.6668C228.726 39.7948 228.694 39.9388 228.662 40.0988C228.662 40.2268 228.662 40.4508 228.662 40.7708C228.662 40.9308 228.678 41.2188 228.71 41.6348C228.774 42.0188 228.918 42.4348 229.142 42.8828C229.366 43.3308 229.734 43.7148 230.246 44.0348C230.758 44.3548 231.462 44.5148 232.358 44.5148C233.702 44.5148 235.046 44.1468 236.39 43.4108C237.766 42.6428 239.046 41.6348 240.23 40.3868C241.446 39.1388 242.454 37.7468 243.254 36.2108L244.214 36.9788C243.35 38.8988 242.23 40.5788 240.854 42.0188C239.51 43.4588 238.006 44.5788 236.342 45.3788C234.71 46.1788 233.03 46.5788 231.302 46.5788ZM229.286 37.8908C230.118 37.7948 231.046 37.5068 232.07 37.0268C233.094 36.5468 234.07 35.9388 234.998 35.2028C235.958 34.4668 236.742 33.6668 237.35 32.8028C237.958 31.9068 238.262 31.0108 238.262 30.1148C238.262 29.7628 238.198 29.5228 238.07 29.3948C237.942 29.2668 237.734 29.2028 237.446 29.2028C236.71 29.2028 235.942 29.4748 235.142 30.0188C234.342 30.5308 233.558 31.2188 232.79 32.0828C232.022 32.9148 231.334 33.8428 230.726 34.8668C230.118 35.8908 229.638 36.8988 229.286 37.8908Z" fill="#D49C65"/>
</g>
<g>
<g clip-path="url(#clip0_48_154)">
<path d="M21.6835 19.2732C21.8271 19.3711 21.9955 19.4228 22.1709 19.4228H22.1729C22.6517 19.4228 23.041 19.0335 23.041 18.5551C23.041 18.4721 23.0294 18.3903 23.0065 18.311C22.5067 16.1221 22.7435 14.3592 23.7103 13.0711C24.8497 11.5532 25.3542 9.60546 25.0602 7.86116C24.8006 6.3154 23.9695 5.03053 22.6577 4.14622C22.3673 3.94978 21.9681 3.95132 21.6786 4.15055C21.3833 4.35412 21.2447 4.71176 21.3261 5.06366C21.8658 7.36665 21.375 8.82559 20.1443 11.0397C19.3778 12.4182 19.0648 13.9669 19.2628 15.4003C19.487 17.0212 20.3253 18.3613 21.6835 19.2732Z" fill="#DFA26C" fill-opacity="0.7"/>
<path d="M28.8041 18.9016C28.94 18.9947 29.0988 19.0439 29.2634 19.0439H29.2645C29.7148 19.0439 30.0813 18.6773 30.0813 18.2268C30.0813 18.1503 30.0707 18.0747 30.0494 18.0012C29.6704 16.3353 29.8477 14.9983 30.5762 14.0273C31.4885 12.8125 31.8924 11.2516 31.6567 9.85236C31.4474 8.60719 30.7778 7.57188 29.7207 6.85884C29.4486 6.67513 29.0802 6.67233 28.7981 6.86443C28.5234 7.055 28.3915 7.40131 28.469 7.72204C28.8803 9.4764 28.5035 10.5929 27.5595 12.2905C26.9461 13.3938 26.696 14.6339 26.855 15.7822C27.0353 17.0883 27.711 18.1682 28.8041 18.9016Z" fill="#DFA26C" fill-opacity="0.7"/>
<path d="M51.2522 24.3119C50.7154 23.6714 49.9442 23.3154 49.0805 23.3096L45.0747 23.2829C45.1209 22.5964 45.0003 21.739 44.5145 21.1593C44.1554 20.7307 43.6411 20.502 43.0272 20.4979L8.30831 20.266C7.39955 20.26 6.87335 20.6478 6.5921 20.9742C6.01593 21.6426 5.9305 22.6487 6.04244 23.3674C6.95949 29.249 8.9898 34.5998 11.7597 38.4342C13.8096 41.272 16.2198 43.3006 18.9639 44.5097L9.29316 44.4451C8.09178 44.4371 7.10798 45.408 7.09996 46.6092C7.09194 47.8105 8.06281 48.7944 9.26405 48.8024L41.4734 49.0176C42.6748 49.0256 43.6587 48.0547 43.6667 46.8535C43.6747 45.6522 42.7039 44.6683 41.5025 44.6603L31.8828 44.596C34.1556 43.6354 36.2026 42.1204 38.0096 40.0581C41.0869 39.8153 44.1855 38.3672 46.8333 35.9138C49.5408 33.4053 51.3964 30.1924 51.9246 27.0995C51.9908 26.7125 52.1375 25.3682 51.2522 24.3119ZM41.6062 34.5913C42.7915 32.2014 43.6269 29.7335 44.2142 27.4716L47.519 27.4937C46.6622 30.1784 44.3859 32.9953 41.6062 34.5913Z" fill="#EBD5B9"/>
<path d="M51.2522 24.3119C50.7154 23.6714 49.9442 23.3154 49.0805 23.3096L45.0747 23.2829C45.1209 22.5964 45.0003 21.739 44.5145 21.1593C44.1554 20.7307 43.6411 20.502 43.0272 20.4979L8.30831 20.266C7.39955 20.26 6.87335 20.6478 6.5921 20.9742C6.01593 21.6426 5.9305 22.6487 6.04244 23.3674C6.95949 29.249 8.9898 34.5998 11.7597 38.4342C13.8096 41.272 16.2198 43.3006 18.9639 44.5097L9.29316 44.4451C8.09178 44.4371 7.10798 45.408 7.09996 46.6092C7.09194 47.8105 8.06281 48.7944 9.26405 48.8024L41.4734 49.0176C42.6748 49.0256 43.6587 48.0547 43.6667 46.8535C43.6747 45.6522 42.7039 44.6683 41.5025 44.6603L31.8828 44.596C34.1556 43.6354 36.2026 42.1204 38.0096 40.0581C41.0869 39.8153 44.1855 38.3672 46.8333 35.9138C49.5408 33.4053 51.3964 30.1924 51.9246 27.0995C51.9908 26.7125 52.1375 25.3682 51.2522 24.3119ZM41.6062 34.5913C42.7915 32.2014 43.6269 29.7335 44.2142 27.4716L47.519 27.4937C46.6622 30.1784 44.3859 32.9953 41.6062 34.5913Z" fill="#EBD5B9"/>
</g>
</g>
<defs>
<clipPath id="clip0_48_154">
<rect width="46" height="46" fill="white" transform="translate(5.92119 3.4668)"/>
</clipPath>
</defs>
</svg>
